<svg xmlns="http://www.w3.org/2000/svg" width="125" height="87" viewBox="0 0 125 87" fill="none"><path d="M0 0C12.0562 22.4186 33.2197 29.0656 59.0573 29.5769C74.3031 29.8915 102.708 28.6526 102.708 36.6564C102.708 42.674 85.6973 58.2884 85.6973 62.1429C85.6973 62.1429 101.124 49.3996 109.77 41.8481C118.415 34.2966 123.25 29.7932 123.25 25.3291C123.25 16.2437 87.3823 17.9349 58.4154 17.9349C29.4484 17.9349 13.6209 12.5072 0 0ZM30.8125 66.8626C25.1355 66.8626 20.5417 71.366 20.5417 76.9313C20.5417 82.4966 25.1355 87 30.8125 87C36.4895 87 41.0833 82.4966 41.0833 76.9313C41.0833 71.366 36.4895 66.8626 30.8125 66.8626ZM71.8958 66.8626C66.2188 66.8626 61.625 71.366 61.625 76.9313C61.625 82.4966 66.2188 87 71.8958 87C77.5729 87 82.1667 82.4966 82.1667 76.9313C82.1667 71.366 77.5729 66.8626 71.8958 66.8626Z" fill="#00BA78"/></svg>